<?xml version="1.0" encoding="UTF-8"?>
<svg id="_x33_5116cce-42cf-49a9-9f9e-4e22b6fcd547" xmlns="http://www.w3.org/2000/svg" version="1.1" viewBox="0 0 51.31 57.53">
  <!-- Generator: Adobe Illustrator 30.0.0, SVG Export Plug-In . SVG Version: 2.1.1 Build 123)  -->
  <defs>
    <style>
      .st0 {
        fill: #e2001a;
      }

      .st1 {
        fill: #fff;
      }

      .st2 {
        fill: #bd0518;
      }

      .st3 {
        fill: #9d0d16;
      }
    </style>
  </defs>
  <polygon class="st2" points="38.59 37.02 39.62 48.26 30.37 40.39 29 29.27 38.59 37.02"/>
  <polygon class="st3" points="24.38 29.03 25.91 40.12 13.79 47.25 11.73 36.19 24.38 29.03"/>
  <polygon class="st0" points="50.78 29.75 38.59 37.02 29 29.27 40.94 22.46 50.78 29.75"/>
  <polygon class="st0" points="24.38 29.03 11.73 36.19 2.95 28.26 15.31 21.56 24.38 29.03"/>
  <polygon class="st2" points="25.1 13.44 26.62 25.23 17.42 17.88 15.6 6.29 25.1 13.44"/>
  <polygon class="st3" points="37.58 6.73 38.6 18.5 26.62 25.23 25.1 13.44 37.58 6.73"/>
  <polygon class="st0" points="37.58 6.73 25.1 13.44 15.6 6.29 27.8 0 37.58 6.73"/>
  <polygon class="st2" points="11.73 36.19 13.79 47.25 5.26 39.19 2.95 28.26 11.73 36.19"/>
  <polygon class="st3" points="50.78 29.75 51.31 41.03 39.62 48.26 38.59 37.02 50.78 29.75"/>
  <polygon class="st0" points="35.99 38.58 22.96 46.34 13.73 38 26.45 30.73 35.99 38.58"/>
  <polygon class="st2" points="22.96 46.34 24.67 57.53 15.73 49.08 13.73 38 22.96 46.34"/>
  <polygon class="st3" points="35.99 38.58 37.13 49.81 24.67 57.53 22.96 46.34 35.99 38.58"/>
  <polygon class="st2" points="37.27 22.6 38.37 34.61 28.71 26.9 27.26 15.07 37.27 22.6"/>
  <polygon class="st0" points="50.09 15.33 37.27 22.6 27.26 15.07 39.81 8.26 50.09 15.33"/>
  <polygon class="st3" points="50.09 15.33 50.66 27.34 38.37 34.61 37.27 22.6 50.09 15.33"/>
  <polygon class="st3" points="22.42 14.87 24.06 26.67 11.29 33.83 9.09 22.04 22.42 14.87"/>
  <polygon class="st0" points="22.42 14.87 9.09 22.04 0 14.33 13 7.63 22.42 14.87"/>
  <polygon class="st2" points="9.09 22.04 11.29 33.83 2.46 25.93 0 14.33 9.09 22.04"/>
  <polygon class="st2" points="20.78 31.96 22.6 43.95 13.3 35.63 11.17 23.81 20.78 31.96"/>
  <polygon class="st3" points="34.52 24.16 35.74 36.18 22.6 43.95 20.78 31.96 34.52 24.16"/>
  <polygon class="st0" points="34.52 24.16 20.78 31.96 11.17 23.81 24.58 16.53 34.52 24.16"/>
  <polygon class="st1" points="20.75 20.45 17.73 22.1 20.14 24.07 16.79 25.92 18.96 27.74 22.33 25.86 24.74 27.83 27.82 26.09 25.39 24.15 28.76 22.27 26.53 20.54 23.18 22.39 20.75 20.45"/>
</svg>